<mxfile host="app.diagrams.net" modified="2021-09-16T07:19:44.923Z" agent="5.0 (Macintosh; Intel Mac OS X 10_14_6) AppleWebKit/537.36 (KHTML, like Gecko) Chrome/93.0.4577.63 Safari/537.36" etag="8JY7P5xERcyENBKunQ6b" version="15.2.7" type="github">
  <diagram id="gNTGlM9QdNkEa6lOBbTF" name="Page-1">
    <mxGraphModel dx="946" dy="589" grid="1" gridSize="10" guides="1" tooltips="1" connect="1" arrows="1" fold="1" page="1" pageScale="1" pageWidth="850" pageHeight="1100" math="0" shadow="0">
      <root>
        <mxCell id="0" />
        <mxCell id="1" parent="0" />
        <mxCell id="rc0p9VyiuHvXQR9eddb2-8" value="APPLICATION" style="shape=table;startSize=30;container=1;collapsible=1;childLayout=tableLayout;fixedRows=1;rowLines=0;fontStyle=1;align=center;resizeLast=1;" vertex="1" parent="1">
          <mxGeometry x="10" y="430" width="180" height="160" as="geometry" />
        </mxCell>
        <mxCell id="rc0p9VyiuHvXQR9eddb2-9" value="" style="shape=partialRectangle;collapsible=0;dropTarget=0;pointerEvents=0;fillColor=none;top=0;left=0;bottom=1;right=0;points=[[0,0.5],[1,0.5]];portConstraint=eastwest;" vertex="1" parent="rc0p9VyiuHvXQR9eddb2-8">
          <mxGeometry y="30" width="180" height="30" as="geometry" />
        </mxCell>
        <mxCell id="rc0p9VyiuHvXQR9eddb2-10" value="PK" style="shape=partialRectangle;connectable=0;fillColor=none;top=0;left=0;bottom=0;right=0;fontStyle=1;overflow=hidden;" vertex="1" parent="rc0p9VyiuHvXQR9eddb2-9">
          <mxGeometry width="30" height="30" as="geometry" />
        </mxCell>
        <mxCell id="rc0p9VyiuHvXQR9eddb2-11" value="ApplicationId" style="shape=partialRectangle;connectable=0;fillColor=none;top=0;left=0;bottom=0;right=0;align=left;spacingLeft=6;fontStyle=5;overflow=hidden;" vertex="1" parent="rc0p9VyiuHvXQR9eddb2-9">
          <mxGeometry x="30" width="150" height="30" as="geometry" />
        </mxCell>
        <mxCell id="rc0p9VyiuHvXQR9eddb2-12" value="" style="shape=partialRectangle;collapsible=0;dropTarget=0;pointerEvents=0;fillColor=none;top=0;left=0;bottom=0;right=0;points=[[0,0.5],[1,0.5]];portConstraint=eastwest;" vertex="1" parent="rc0p9VyiuHvXQR9eddb2-8">
          <mxGeometry y="60" width="180" height="30" as="geometry" />
        </mxCell>
        <mxCell id="rc0p9VyiuHvXQR9eddb2-13" value="" style="shape=partialRectangle;connectable=0;fillColor=none;top=0;left=0;bottom=0;right=0;editable=1;overflow=hidden;" vertex="1" parent="rc0p9VyiuHvXQR9eddb2-12">
          <mxGeometry width="30" height="30" as="geometry" />
        </mxCell>
        <mxCell id="rc0p9VyiuHvXQR9eddb2-14" value="Name" style="shape=partialRectangle;connectable=0;fillColor=none;top=0;left=0;bottom=0;right=0;align=left;spacingLeft=6;overflow=hidden;" vertex="1" parent="rc0p9VyiuHvXQR9eddb2-12">
          <mxGeometry x="30" width="150" height="30" as="geometry" />
        </mxCell>
        <mxCell id="rc0p9VyiuHvXQR9eddb2-15" value="" style="shape=partialRectangle;collapsible=0;dropTarget=0;pointerEvents=0;fillColor=none;top=0;left=0;bottom=0;right=0;points=[[0,0.5],[1,0.5]];portConstraint=eastwest;" vertex="1" parent="rc0p9VyiuHvXQR9eddb2-8">
          <mxGeometry y="90" width="180" height="30" as="geometry" />
        </mxCell>
        <mxCell id="rc0p9VyiuHvXQR9eddb2-16" value="" style="shape=partialRectangle;connectable=0;fillColor=none;top=0;left=0;bottom=0;right=0;editable=1;overflow=hidden;" vertex="1" parent="rc0p9VyiuHvXQR9eddb2-15">
          <mxGeometry width="30" height="30" as="geometry" />
        </mxCell>
        <mxCell id="rc0p9VyiuHvXQR9eddb2-17" value="Url" style="shape=partialRectangle;connectable=0;fillColor=none;top=0;left=0;bottom=0;right=0;align=left;spacingLeft=6;overflow=hidden;" vertex="1" parent="rc0p9VyiuHvXQR9eddb2-15">
          <mxGeometry x="30" width="150" height="30" as="geometry" />
        </mxCell>
        <mxCell id="rc0p9VyiuHvXQR9eddb2-18" value="" style="shape=partialRectangle;collapsible=0;dropTarget=0;pointerEvents=0;fillColor=none;top=0;left=0;bottom=0;right=0;points=[[0,0.5],[1,0.5]];portConstraint=eastwest;" vertex="1" parent="rc0p9VyiuHvXQR9eddb2-8">
          <mxGeometry y="120" width="180" height="30" as="geometry" />
        </mxCell>
        <mxCell id="rc0p9VyiuHvXQR9eddb2-19" value="" style="shape=partialRectangle;connectable=0;fillColor=none;top=0;left=0;bottom=0;right=0;editable=1;overflow=hidden;" vertex="1" parent="rc0p9VyiuHvXQR9eddb2-18">
          <mxGeometry width="30" height="30" as="geometry" />
        </mxCell>
        <mxCell id="rc0p9VyiuHvXQR9eddb2-20" value="sendInput()&#xa;getInfo()" style="shape=partialRectangle;connectable=0;fillColor=none;top=0;left=0;bottom=0;right=0;align=left;spacingLeft=6;overflow=hidden;" vertex="1" parent="rc0p9VyiuHvXQR9eddb2-18">
          <mxGeometry x="30" width="150" height="30" as="geometry" />
        </mxCell>
        <mxCell id="rc0p9VyiuHvXQR9eddb2-21" value="INPUT" style="shape=table;startSize=30;container=1;collapsible=1;childLayout=tableLayout;fixedRows=1;rowLines=0;fontStyle=1;align=center;resizeLast=1;" vertex="1" parent="1">
          <mxGeometry x="260" y="380" width="180" height="160" as="geometry" />
        </mxCell>
        <mxCell id="rc0p9VyiuHvXQR9eddb2-22" value="" style="shape=partialRectangle;collapsible=0;dropTarget=0;pointerEvents=0;fillColor=none;top=0;left=0;bottom=1;right=0;points=[[0,0.5],[1,0.5]];portConstraint=eastwest;" vertex="1" parent="rc0p9VyiuHvXQR9eddb2-21">
          <mxGeometry y="30" width="180" height="30" as="geometry" />
        </mxCell>
        <mxCell id="rc0p9VyiuHvXQR9eddb2-23" value="PK" style="shape=partialRectangle;connectable=0;fillColor=none;top=0;left=0;bottom=0;right=0;fontStyle=1;overflow=hidden;" vertex="1" parent="rc0p9VyiuHvXQR9eddb2-22">
          <mxGeometry width="30" height="30" as="geometry" />
        </mxCell>
        <mxCell id="rc0p9VyiuHvXQR9eddb2-24" value="inputNo" style="shape=partialRectangle;connectable=0;fillColor=none;top=0;left=0;bottom=0;right=0;align=left;spacingLeft=6;fontStyle=5;overflow=hidden;" vertex="1" parent="rc0p9VyiuHvXQR9eddb2-22">
          <mxGeometry x="30" width="150" height="30" as="geometry" />
        </mxCell>
        <mxCell id="rc0p9VyiuHvXQR9eddb2-25" value="" style="shape=partialRectangle;collapsible=0;dropTarget=0;pointerEvents=0;fillColor=none;top=0;left=0;bottom=0;right=0;points=[[0,0.5],[1,0.5]];portConstraint=eastwest;" vertex="1" parent="rc0p9VyiuHvXQR9eddb2-21">
          <mxGeometry y="60" width="180" height="30" as="geometry" />
        </mxCell>
        <mxCell id="rc0p9VyiuHvXQR9eddb2-26" value="" style="shape=partialRectangle;connectable=0;fillColor=none;top=0;left=0;bottom=0;right=0;editable=1;overflow=hidden;" vertex="1" parent="rc0p9VyiuHvXQR9eddb2-25">
          <mxGeometry width="30" height="30" as="geometry" />
        </mxCell>
        <mxCell id="rc0p9VyiuHvXQR9eddb2-27" value="Type" style="shape=partialRectangle;connectable=0;fillColor=none;top=0;left=0;bottom=0;right=0;align=left;spacingLeft=6;overflow=hidden;" vertex="1" parent="rc0p9VyiuHvXQR9eddb2-25">
          <mxGeometry x="30" width="150" height="30" as="geometry" />
        </mxCell>
        <mxCell id="rc0p9VyiuHvXQR9eddb2-28" value="" style="shape=partialRectangle;collapsible=0;dropTarget=0;pointerEvents=0;fillColor=none;top=0;left=0;bottom=0;right=0;points=[[0,0.5],[1,0.5]];portConstraint=eastwest;" vertex="1" parent="rc0p9VyiuHvXQR9eddb2-21">
          <mxGeometry y="90" width="180" height="30" as="geometry" />
        </mxCell>
        <mxCell id="rc0p9VyiuHvXQR9eddb2-29" value="" style="shape=partialRectangle;connectable=0;fillColor=none;top=0;left=0;bottom=0;right=0;editable=1;overflow=hidden;" vertex="1" parent="rc0p9VyiuHvXQR9eddb2-28">
          <mxGeometry width="30" height="30" as="geometry" />
        </mxCell>
        <mxCell id="rc0p9VyiuHvXQR9eddb2-30" value="Size" style="shape=partialRectangle;connectable=0;fillColor=none;top=0;left=0;bottom=0;right=0;align=left;spacingLeft=6;overflow=hidden;" vertex="1" parent="rc0p9VyiuHvXQR9eddb2-28">
          <mxGeometry x="30" width="150" height="30" as="geometry" />
        </mxCell>
        <mxCell id="rc0p9VyiuHvXQR9eddb2-31" value="" style="shape=partialRectangle;collapsible=0;dropTarget=0;pointerEvents=0;fillColor=none;top=0;left=0;bottom=0;right=0;points=[[0,0.5],[1,0.5]];portConstraint=eastwest;" vertex="1" parent="rc0p9VyiuHvXQR9eddb2-21">
          <mxGeometry y="120" width="180" height="30" as="geometry" />
        </mxCell>
        <mxCell id="rc0p9VyiuHvXQR9eddb2-32" value="" style="shape=partialRectangle;connectable=0;fillColor=none;top=0;left=0;bottom=0;right=0;editable=1;overflow=hidden;" vertex="1" parent="rc0p9VyiuHvXQR9eddb2-31">
          <mxGeometry width="30" height="30" as="geometry" />
        </mxCell>
        <mxCell id="rc0p9VyiuHvXQR9eddb2-33" value="sendInput()&#xa;receive()" style="shape=partialRectangle;connectable=0;fillColor=none;top=0;left=0;bottom=0;right=0;align=left;spacingLeft=6;overflow=hidden;" vertex="1" parent="rc0p9VyiuHvXQR9eddb2-31">
          <mxGeometry x="30" width="150" height="30" as="geometry" />
        </mxCell>
        <mxCell id="rc0p9VyiuHvXQR9eddb2-34" value="" style="line;strokeWidth=1;rotatable=0;dashed=0;labelPosition=right;align=left;verticalAlign=middle;spacingTop=0;spacingLeft=6;points=[];portConstraint=eastwest;" vertex="1" parent="1">
          <mxGeometry x="40" y="540" width="150" height="10" as="geometry" />
        </mxCell>
        <mxCell id="rc0p9VyiuHvXQR9eddb2-35" value="" style="line;strokeWidth=1;rotatable=0;dashed=0;labelPosition=right;align=left;verticalAlign=middle;spacingTop=0;spacingLeft=6;points=[];portConstraint=eastwest;" vertex="1" parent="1">
          <mxGeometry x="290" y="490" width="150" height="10" as="geometry" />
        </mxCell>
        <mxCell id="rc0p9VyiuHvXQR9eddb2-36" value="" style="edgeStyle=entityRelationEdgeStyle;fontSize=12;html=1;endArrow=ERoneToMany;exitX=1;exitY=0.5;exitDx=0;exitDy=0;entryX=0;entryY=0.5;entryDx=0;entryDy=0;" edge="1" parent="1" source="rc0p9VyiuHvXQR9eddb2-9" target="rc0p9VyiuHvXQR9eddb2-22">
          <mxGeometry width="100" height="100" relative="1" as="geometry">
            <mxPoint x="175" y="560" as="sourcePoint" />
            <mxPoint x="240" y="470" as="targetPoint" />
          </mxGeometry>
        </mxCell>
        <mxCell id="rc0p9VyiuHvXQR9eddb2-37" value="1-n" style="edgeLabel;html=1;align=center;verticalAlign=middle;resizable=0;points=[];" vertex="1" connectable="0" parent="rc0p9VyiuHvXQR9eddb2-36">
          <mxGeometry x="0.2403" relative="1" as="geometry">
            <mxPoint as="offset" />
          </mxGeometry>
        </mxCell>
        <mxCell id="rc0p9VyiuHvXQR9eddb2-38" value="SERVICE" style="shape=table;startSize=30;container=1;collapsible=1;childLayout=tableLayout;fixedRows=1;rowLines=0;fontStyle=1;align=center;resizeLast=1;" vertex="1" parent="1">
          <mxGeometry x="25" y="650" width="180" height="180" as="geometry" />
        </mxCell>
        <mxCell id="rc0p9VyiuHvXQR9eddb2-39" value="" style="shape=partialRectangle;collapsible=0;dropTarget=0;pointerEvents=0;fillColor=none;top=0;left=0;bottom=1;right=0;points=[[0,0.5],[1,0.5]];portConstraint=eastwest;" vertex="1" parent="rc0p9VyiuHvXQR9eddb2-38">
          <mxGeometry y="30" width="180" height="50" as="geometry" />
        </mxCell>
        <mxCell id="rc0p9VyiuHvXQR9eddb2-40" value="PK" style="shape=partialRectangle;connectable=0;fillColor=none;top=0;left=0;bottom=0;right=0;fontStyle=1;overflow=hidden;" vertex="1" parent="rc0p9VyiuHvXQR9eddb2-39">
          <mxGeometry width="30" height="50" as="geometry" />
        </mxCell>
        <mxCell id="rc0p9VyiuHvXQR9eddb2-41" value="ServiceNo&#xa;" style="shape=partialRectangle;connectable=0;fillColor=none;top=0;left=0;bottom=0;right=0;align=left;spacingLeft=6;fontStyle=5;overflow=hidden;" vertex="1" parent="rc0p9VyiuHvXQR9eddb2-39">
          <mxGeometry x="30" width="150" height="50" as="geometry" />
        </mxCell>
        <mxCell id="rc0p9VyiuHvXQR9eddb2-42" value="" style="shape=partialRectangle;collapsible=0;dropTarget=0;pointerEvents=0;fillColor=none;top=0;left=0;bottom=0;right=0;points=[[0,0.5],[1,0.5]];portConstraint=eastwest;" vertex="1" parent="rc0p9VyiuHvXQR9eddb2-38">
          <mxGeometry y="80" width="180" height="30" as="geometry" />
        </mxCell>
        <mxCell id="rc0p9VyiuHvXQR9eddb2-43" value="" style="shape=partialRectangle;connectable=0;fillColor=none;top=0;left=0;bottom=0;right=0;editable=1;overflow=hidden;" vertex="1" parent="rc0p9VyiuHvXQR9eddb2-42">
          <mxGeometry width="30" height="30" as="geometry" />
        </mxCell>
        <mxCell id="rc0p9VyiuHvXQR9eddb2-44" value="Name" style="shape=partialRectangle;connectable=0;fillColor=none;top=0;left=0;bottom=0;right=0;align=left;spacingLeft=6;overflow=hidden;" vertex="1" parent="rc0p9VyiuHvXQR9eddb2-42">
          <mxGeometry x="30" width="150" height="30" as="geometry" />
        </mxCell>
        <mxCell id="rc0p9VyiuHvXQR9eddb2-45" value="" style="shape=partialRectangle;collapsible=0;dropTarget=0;pointerEvents=0;fillColor=none;top=0;left=0;bottom=0;right=0;points=[[0,0.5],[1,0.5]];portConstraint=eastwest;" vertex="1" parent="rc0p9VyiuHvXQR9eddb2-38">
          <mxGeometry y="110" width="180" height="30" as="geometry" />
        </mxCell>
        <mxCell id="rc0p9VyiuHvXQR9eddb2-46" value="" style="shape=partialRectangle;connectable=0;fillColor=none;top=0;left=0;bottom=0;right=0;editable=1;overflow=hidden;" vertex="1" parent="rc0p9VyiuHvXQR9eddb2-45">
          <mxGeometry width="30" height="30" as="geometry" />
        </mxCell>
        <mxCell id="rc0p9VyiuHvXQR9eddb2-47" value="Type" style="shape=partialRectangle;connectable=0;fillColor=none;top=0;left=0;bottom=0;right=0;align=left;spacingLeft=6;overflow=hidden;" vertex="1" parent="rc0p9VyiuHvXQR9eddb2-45">
          <mxGeometry x="30" width="150" height="30" as="geometry" />
        </mxCell>
        <mxCell id="rc0p9VyiuHvXQR9eddb2-48" value="" style="shape=partialRectangle;collapsible=0;dropTarget=0;pointerEvents=0;fillColor=none;top=0;left=0;bottom=0;right=0;points=[[0,0.5],[1,0.5]];portConstraint=eastwest;" vertex="1" parent="rc0p9VyiuHvXQR9eddb2-38">
          <mxGeometry y="140" width="180" height="30" as="geometry" />
        </mxCell>
        <mxCell id="rc0p9VyiuHvXQR9eddb2-49" value="" style="shape=partialRectangle;connectable=0;fillColor=none;top=0;left=0;bottom=0;right=0;editable=1;overflow=hidden;" vertex="1" parent="rc0p9VyiuHvXQR9eddb2-48">
          <mxGeometry width="30" height="30" as="geometry" />
        </mxCell>
        <mxCell id="rc0p9VyiuHvXQR9eddb2-50" value="getService()" style="shape=partialRectangle;connectable=0;fillColor=none;top=0;left=0;bottom=0;right=0;align=left;spacingLeft=6;overflow=hidden;" vertex="1" parent="rc0p9VyiuHvXQR9eddb2-48">
          <mxGeometry x="30" width="150" height="30" as="geometry" />
        </mxCell>
        <mxCell id="rc0p9VyiuHvXQR9eddb2-51" value="" style="line;strokeWidth=1;rotatable=0;dashed=0;labelPosition=right;align=left;verticalAlign=middle;spacingTop=0;spacingLeft=6;points=[];portConstraint=eastwest;" vertex="1" parent="1">
          <mxGeometry x="55" y="780" width="150" height="10" as="geometry" />
        </mxCell>
        <mxCell id="rc0p9VyiuHvXQR9eddb2-52" value="SERVICEPROVIDER" style="shape=table;startSize=30;container=1;collapsible=1;childLayout=tableLayout;fixedRows=1;rowLines=0;fontStyle=1;align=center;resizeLast=1;" vertex="1" parent="1">
          <mxGeometry x="260" y="650" width="180" height="220" as="geometry" />
        </mxCell>
        <mxCell id="rc0p9VyiuHvXQR9eddb2-53" value="" style="shape=partialRectangle;collapsible=0;dropTarget=0;pointerEvents=0;fillColor=none;top=0;left=0;bottom=1;right=0;points=[[0,0.5],[1,0.5]];portConstraint=eastwest;" vertex="1" parent="rc0p9VyiuHvXQR9eddb2-52">
          <mxGeometry y="30" width="180" height="30" as="geometry" />
        </mxCell>
        <mxCell id="rc0p9VyiuHvXQR9eddb2-54" value="PK" style="shape=partialRectangle;connectable=0;fillColor=none;top=0;left=0;bottom=0;right=0;fontStyle=1;overflow=hidden;" vertex="1" parent="rc0p9VyiuHvXQR9eddb2-53">
          <mxGeometry width="30" height="30" as="geometry" />
        </mxCell>
        <mxCell id="rc0p9VyiuHvXQR9eddb2-55" value="ProviderId" style="shape=partialRectangle;connectable=0;fillColor=none;top=0;left=0;bottom=0;right=0;align=left;spacingLeft=6;fontStyle=5;overflow=hidden;" vertex="1" parent="rc0p9VyiuHvXQR9eddb2-53">
          <mxGeometry x="30" width="150" height="30" as="geometry" />
        </mxCell>
        <mxCell id="rc0p9VyiuHvXQR9eddb2-56" value="" style="shape=partialRectangle;collapsible=0;dropTarget=0;pointerEvents=0;fillColor=none;top=0;left=0;bottom=0;right=0;points=[[0,0.5],[1,0.5]];portConstraint=eastwest;" vertex="1" parent="rc0p9VyiuHvXQR9eddb2-52">
          <mxGeometry y="60" width="180" height="30" as="geometry" />
        </mxCell>
        <mxCell id="rc0p9VyiuHvXQR9eddb2-57" value="" style="shape=partialRectangle;connectable=0;fillColor=none;top=0;left=0;bottom=0;right=0;editable=1;overflow=hidden;" vertex="1" parent="rc0p9VyiuHvXQR9eddb2-56">
          <mxGeometry width="30" height="30" as="geometry" />
        </mxCell>
        <mxCell id="rc0p9VyiuHvXQR9eddb2-58" value="Name" style="shape=partialRectangle;connectable=0;fillColor=none;top=0;left=0;bottom=0;right=0;align=left;spacingLeft=6;overflow=hidden;" vertex="1" parent="rc0p9VyiuHvXQR9eddb2-56">
          <mxGeometry x="30" width="150" height="30" as="geometry" />
        </mxCell>
        <mxCell id="rc0p9VyiuHvXQR9eddb2-59" value="" style="shape=partialRectangle;collapsible=0;dropTarget=0;pointerEvents=0;fillColor=none;top=0;left=0;bottom=0;right=0;points=[[0,0.5],[1,0.5]];portConstraint=eastwest;" vertex="1" parent="rc0p9VyiuHvXQR9eddb2-52">
          <mxGeometry y="90" width="180" height="30" as="geometry" />
        </mxCell>
        <mxCell id="rc0p9VyiuHvXQR9eddb2-60" value="" style="shape=partialRectangle;connectable=0;fillColor=none;top=0;left=0;bottom=0;right=0;editable=1;overflow=hidden;" vertex="1" parent="rc0p9VyiuHvXQR9eddb2-59">
          <mxGeometry width="30" height="30" as="geometry" />
        </mxCell>
        <mxCell id="rc0p9VyiuHvXQR9eddb2-61" value="Email" style="shape=partialRectangle;connectable=0;fillColor=none;top=0;left=0;bottom=0;right=0;align=left;spacingLeft=6;overflow=hidden;" vertex="1" parent="rc0p9VyiuHvXQR9eddb2-59">
          <mxGeometry x="30" width="150" height="30" as="geometry" />
        </mxCell>
        <mxCell id="rc0p9VyiuHvXQR9eddb2-62" value="" style="shape=partialRectangle;collapsible=0;dropTarget=0;pointerEvents=0;fillColor=none;top=0;left=0;bottom=0;right=0;points=[[0,0.5],[1,0.5]];portConstraint=eastwest;" vertex="1" parent="rc0p9VyiuHvXQR9eddb2-52">
          <mxGeometry y="120" width="180" height="30" as="geometry" />
        </mxCell>
        <mxCell id="rc0p9VyiuHvXQR9eddb2-63" value="" style="shape=partialRectangle;connectable=0;fillColor=none;top=0;left=0;bottom=0;right=0;editable=1;overflow=hidden;" vertex="1" parent="rc0p9VyiuHvXQR9eddb2-62">
          <mxGeometry width="30" height="30" as="geometry" />
        </mxCell>
        <mxCell id="rc0p9VyiuHvXQR9eddb2-64" value="ProvideDisplayInfo()&#xa;" style="shape=partialRectangle;connectable=0;fillColor=none;top=0;left=0;bottom=0;right=0;align=left;spacingLeft=6;overflow=hidden;" vertex="1" parent="rc0p9VyiuHvXQR9eddb2-62">
          <mxGeometry x="30" width="150" height="30" as="geometry" />
        </mxCell>
        <mxCell id="rc0p9VyiuHvXQR9eddb2-65" value="giveService()" style="shape=partialRectangle;connectable=0;fillColor=none;top=0;left=0;bottom=0;right=0;align=left;spacingLeft=6;overflow=hidden;" vertex="1" parent="1">
          <mxGeometry x="290" y="800" width="150" height="30" as="geometry" />
        </mxCell>
        <mxCell id="rc0p9VyiuHvXQR9eddb2-66" value="" style="line;strokeWidth=1;rotatable=0;dashed=0;labelPosition=right;align=left;verticalAlign=middle;spacingTop=0;spacingLeft=6;points=[];portConstraint=eastwest;" vertex="1" parent="1">
          <mxGeometry x="290" y="760" width="150" height="10" as="geometry" />
        </mxCell>
        <mxCell id="rc0p9VyiuHvXQR9eddb2-69" value="" style="edgeStyle=entityRelationEdgeStyle;fontSize=12;html=1;endArrow=ERzeroToMany;startArrow=ERzeroToOne;" edge="1" parent="1" target="rc0p9VyiuHvXQR9eddb2-12">
          <mxGeometry width="100" height="100" relative="1" as="geometry">
            <mxPoint x="310" y="650" as="sourcePoint" />
            <mxPoint x="220" y="520" as="targetPoint" />
          </mxGeometry>
        </mxCell>
        <mxCell id="rc0p9VyiuHvXQR9eddb2-71" value="n-1" style="edgeLabel;html=1;align=center;verticalAlign=middle;resizable=0;points=[];" vertex="1" connectable="0" parent="rc0p9VyiuHvXQR9eddb2-69">
          <mxGeometry x="0.7415" y="2" relative="1" as="geometry">
            <mxPoint as="offset" />
          </mxGeometry>
        </mxCell>
        <mxCell id="rc0p9VyiuHvXQR9eddb2-72" value="" style="edgeStyle=isometricEdgeStyle;fontSize=12;html=1;endArrow=ERoneToMany;startArrow=ERzeroToOne;elbow=vertical;exitX=0;exitY=1;exitDx=0;exitDy=0;exitPerimeter=0;" edge="1" parent="1" source="rc0p9VyiuHvXQR9eddb2-62">
          <mxGeometry width="100" height="100" relative="1" as="geometry">
            <mxPoint x="250" y="795" as="sourcePoint" />
            <mxPoint x="200" y="725" as="targetPoint" />
          </mxGeometry>
        </mxCell>
        <mxCell id="rc0p9VyiuHvXQR9eddb2-74" value="n-1" style="edgeLabel;html=1;align=center;verticalAlign=middle;resizable=0;points=[];" vertex="1" connectable="0" parent="rc0p9VyiuHvXQR9eddb2-72">
          <mxGeometry x="-0.2833" y="-3" relative="1" as="geometry">
            <mxPoint as="offset" />
          </mxGeometry>
        </mxCell>
      </root>
    </mxGraphModel>
  </diagram>
</mxfile>
